<svg id="Layer_1" data-name="Layer 1" xmlns="http://www.w3.org/2000/svg" viewBox="0 0 373 327"><defs><style>.cls-1{fill:#fff;}</style></defs><path class="cls-1" d="M184.85,78a82.65,82.65,0,1,0,82.65,82.65A82.64,82.64,0,0,0,184.85,78Zm0,136.29a53.65,53.65,0,1,1,53.65-53.64A53.63,53.63,0,0,1,184.85,214.26Z"/><path class="cls-1" d="M251.21.64c-29.64-1.38-103-1.31-132.69,0C92.45,1.86,69.46,8.16,50.93,26.69c-31,31-27,72.71-27,133.93,0,62.64-3.49,103.42,27,133.92,31.09,31.09,73.44,27,133.92,27,62.06,0,83.48,0,105.42-8.46,29.84-11.58,52.36-38.25,54.56-86.14,1.4-29.65,1.32-103,0-132.7-2.66-56.54-33-90.83-93.62-93.62Zm46.9,273.41c-20.3,20.3-48.47,18.49-113.65,18.49-67.1,0-94,1-113.64-18.69C48.2,251.34,52.3,215.2,52.3,160.4,52.3,86.25,44.69,32.85,119.11,29c17.09-.61,22.13-.81,65.17-.81l.6.41c71.52,0,127.63-7.49,131,66.91.77,17,.94,22.08.94,65.05,0,66.33,1.25,93.4-18.71,113.45Z"/><circle class="cls-1" cx="270.77" cy="74.71" r="19.31"/></svg>