<svg id="Layer_1" data-name="Layer 1" xmlns="http://www.w3.org/2000/svg" viewBox="0 0 373 327"><defs><style>.cls-1{fill:#fff;}</style></defs><path class="cls-1" d="M184.72,6.41A155.76,155.76,0,1,0,340.47,162.17,155.77,155.77,0,0,0,184.72,6.41ZM138.65,242.67h-38V128.76h38ZM120.49,111.88h-.24c-12.73,0-21-8.76-21-19.71,0-11.2,8.49-19.72,21.46-19.72S141.71,81,142,92.17C142,103.12,133.72,111.88,120.49,111.88ZM273.66,242.67h-38V181.61c0-15.34-5.23-25.8-18.28-25.8-10,0-15.9,7.05-18.51,13.87-1,2.44-1.18,5.84-1.18,9.25v63.74h-37s.48-103.23,0-113.91h37v16.13c4.91-7.77,13.71-18.81,33.34-18.81,24.34,0,42.6,16.28,42.6,51.27Z"/></svg>