<svg id="Layer_1" data-name="Layer 1" xmlns="http://www.w3.org/2000/svg" viewBox="0 0 408 327"><defs><style>.cls-1{fill:#fff;}</style></defs><path class="cls-1" d="M405.69,41.86A167.27,167.27,0,0,1,359.3,54.6,80.18,80.18,0,0,0,394.72,10a160.75,160.75,0,0,1-51.05,19.54A80.46,80.46,0,0,0,204.41,84.72a83.05,83.05,0,0,0,1.87,18.4C139.35,99.85,80.13,67.69,40.34,18.71A80.84,80.84,0,0,0,65.08,126.56a79.28,79.28,0,0,1-36.37-9.94v.89a81,81,0,0,0,64.5,79.29,80.49,80.49,0,0,1-21.11,2.65,71.16,71.16,0,0,1-15.24-1.37c10.43,31.95,40,55.45,75.22,56.21a161.48,161.48,0,0,1-99.81,34.42A150.72,150.72,0,0,1,13,287.6a226.25,226.25,0,0,0,123.5,36.21c148.14,0,229.14-123,229.14-229.62,0-3.57-.13-7-.3-10.43A160.85,160.85,0,0,0,405.69,41.86Z"/></svg>